<svg id="Capa_1" enable-background="new 0 0 512 512" height="512" viewBox="0 0 512 512" width="512" xmlns="http://www.w3.org/2000/svg"><g><path d="m404.906 223.228v-84.646h23.512c7.074 0 12.829-5.754 12.829-12.827v-36.016c0-7.058-5.755-12.799-12.829-12.799h-23.512v-32.963c0-7.073-5.755-12.827-12.829-12.827h-36.028c-7.059 0-12.801 5.754-12.801 12.827v32.963h-23.539c-7.059 0-12.801 5.741-12.801 12.799v36.015c0 7.073 5.742 12.827 12.801 12.827h23.539v84.65c-34.42 7.879-64.978 29.057-84.543 58.811-2.275 3.461-1.315 8.112 2.146 10.388 3.463 2.276 8.112 1.315 10.388-2.146 18.479-28.103 47.944-47.621 80.841-53.553 3.571-.644 6.169-3.752 6.169-7.381v-98.27c0-4.143-3.357-7.5-7.5-7.5h-28.84v-31.64h28.84c4.143 0 7.5-3.357 7.5-7.5v-38.291h31.658v38.291c0 4.143 3.357 7.5 7.5 7.5h28.841v31.641h-28.841c-4.143 0-7.5 3.357-7.5 7.5v98.27c0 3.628 2.597 6.736 6.167 7.381 58.481 10.559 100.926 61.403 100.926 120.895 0 67.752-55.143 122.873-122.923 122.873-67.779 0-122.922-55.121-122.922-122.873 0-13.223 2.075-26.207 6.169-38.592 1.3-3.933-.835-8.175-4.768-9.475-3.933-1.298-8.174.835-9.475 4.768-4.597 13.906-6.927 28.474-6.927 43.299 0 76.023 61.871 137.873 137.922 137.873s137.924-61.85 137.924-137.873c0-64.645-44.671-120.19-107.094-134.399z"/><path d="m374.077 448.859c50.308 0 91.236-40.927 91.236-91.232 0-50.29-40.929-91.204-91.236-91.204-50.323 0-91.264 40.914-91.264 91.204 0 50.306 40.941 91.232 91.264 91.232zm0-167.436c42.037 0 76.236 34.185 76.236 76.204 0 42.035-34.199 76.232-76.236 76.232-42.052 0-76.264-34.197-76.264-76.232 0-42.02 34.212-76.204 76.264-76.204z"/><path d="m336.964 373.097 29.598 29.304c.186.184.38.357.583.521l.193.155c2.384 1.916 4.551 2.873 6.724 2.873 2.161 0 4.328-.948 6.717-2.846l.196-.155c.217-.172.424-.355.621-.551l29.567-29.302c.038-.038.075-.076.112-.114 11.554-11.959 11.554-31.417.001-43.375-9.546-9.885-25.084-10.103-37.199-.932-12.114-9.16-27.654-8.945-37.228.931-11.552 11.959-11.552 31.417 0 43.376.039.039.077.077.115.115zm10.665-33.061c5.109-5.271 13.535-2.996 18.856 1.808.404.366.723.677.983.93 4.297 4.179 8.856 4.187 13.181.025.264-.253.586-.564 1.005-.941 5.335-4.816 13.747-7.095 18.834-1.83 5.984 6.194 6.001 16.264.05 22.479l-26.463 26.226-26.487-26.226c-5.951-6.217-5.934-16.285.041-22.471z"/><path d="m137.908 125.415c-12.159-9.171-27.701-8.944-37.205.93-11.585 11.955-11.585 31.408 0 43.363.027.029.056.058.084.086l29.619 29.354c.186.184.381.357.585.521l.194.155c2.383 1.915 4.55 2.872 6.721 2.872 2.161 0 4.327-.948 6.716-2.844l.197-.156c.217-.172.425-.356.622-.552l26.044-25.809 3.544-3.542c.028-.028.057-.057.084-.086 11.585-11.955 11.585-31.408.018-43.346-9.521-9.891-25.067-10.118-37.223-.946zm26.47 33.816-26.457 26.248-22.986-22.753-3.496-3.495c-5.869-6.099-5.856-16.367.054-22.467 5.065-5.264 13.499-2.977 18.865 1.85.405.364.725.673.984.923 4.297 4.135 8.836 4.135 13.133 0 .26-.25.579-.559.986-.925 5.364-4.824 13.795-7.11 18.881-1.83 5.893 6.082 5.905 16.351.036 22.449z"/><path d="m196.342 375.1c-5.228-5.161-13.695-5.146-18.878.033l-8.712 8.709v-95.073c48.99-11.212 88.711-48.969 102.146-97.72 1.101-3.993-1.244-8.122-5.238-9.223-3.991-1.1-8.122 1.245-9.223 5.238-12.471 45.252-50.356 79.875-96.518 88.204-3.57.645-6.168 3.753-6.168 7.381v119.295c0 3.033 1.827 5.768 4.629 6.929 2.805 1.162 6.028.52 8.174-1.625l20.365-20.358 22.387 22.379-69.968 69.941c-.677.676-1.152 1.018-1.426 1.183-.268-.163-.736-.504-1.409-1.185l-26.302-26.264-43.664-43.676 22.387-22.378 20.334 20.354c2.143 2.146 5.37 2.788 8.174 1.629 2.804-1.16 4.632-3.896 4.632-6.93v-119.294c0-3.628-2.597-6.736-6.167-7.381-58.463-10.556-100.897-61.4-100.897-120.895 0-67.752 55.143-122.873 122.923-122.873 67.779 0 122.922 55.121 122.922 122.873 0 4.143 3.357 7.5 7.5 7.5s7.5-3.357 7.5-7.5c0-76.023-61.871-137.873-137.922-137.873s-137.923 61.85-137.923 137.873c0 64.647 44.658 120.193 107.064 134.399v95.053l-8.717-8.726c-5.229-5.162-13.696-5.146-18.878.032l-24.69 24.682c-2.538 2.539-3.93 5.916-3.918 9.509.012 3.579 1.415 6.93 3.918 9.4l44.819 44.832 26.271 26.231c3.747 3.792 7.803 5.714 12.054 5.714 4.205 0 8.249-1.911 12.021-5.681l71.12-71.095c5.184-5.181 5.198-13.649.001-18.912z"/><path d="m137.923 63.141c-50.323 0-91.265 40.927-91.265 91.232 0 50.29 40.941 91.204 91.265 91.204 50.308 0 91.235-40.914 91.235-91.204 0-50.306-40.928-91.232-91.235-91.232zm0 167.436c-42.053 0-76.265-34.185-76.265-76.204 0-42.035 34.212-76.232 76.265-76.232 42.036 0 76.235 34.197 76.235 76.232 0 42.02-34.199 76.204-76.235 76.204z"/></g></svg>