<svg height="512" viewBox="0 0 256 256" width="512" xmlns="http://www.w3.org/2000/svg"><g fill="#846f75"><path d="m102.654 57.845a55.238 55.238 0 1 0 55.238 55.238 55.3 55.3 0 0 0 -55.238-55.238zm0 105.476a50.238 50.238 0 1 1 50.238-50.238 50.3 50.3 0 0 1 -50.238 50.238z"/><path d="m102.654 75.1a37.982 37.982 0 1 0 37.982 37.982 38.026 38.026 0 0 0 -37.982-37.982zm0 70.964a32.982 32.982 0 1 1 32.982-32.982 33.019 33.019 0 0 1 -32.982 32.983z"/><path d="m135.73 196.75h-21.9v-21.9a2.5 2.5 0 0 0 -5 0v24.4a2.5 2.5 0 0 0 2.5 2.5h21.9v12.35h-21.9a2.5 2.5 0 0 0 -2.5 2.5v21.9h-12.35v-21.9a2.5 2.5 0 0 0 -2.5-2.5h-21.9v-12.35h21.9a2.5 2.5 0 0 0 2.5-2.5v-24.4a2.5 2.5 0 0 0 -5 0v21.9h-21.9a2.5 2.5 0 0 0 -2.5 2.5v17.35a2.5 2.5 0 0 0 2.5 2.5h21.9v21.9a2.5 2.5 0 0 0 2.5 2.5h17.347a2.5 2.5 0 0 0 2.5-2.5v-21.9h21.9a2.5 2.5 0 0 0 2.5-2.5v-17.35a2.5 2.5 0 0 0 -2.497-2.5z"/><path d="m145.962 69.13 32.062-31.736a2.5 2.5 0 0 0 -1.746-4.277l-15.952-.081.064-12.416 43.181.221-.22 43.182-12.415-.064.081-15.952a2.5 2.5 0 0 0 -4.259-1.789l-32.058 31.736a2.5 2.5 0 0 0 3.518 3.553l27.772-27.49-.063 12.417a2.5 2.5 0 0 0 2.487 2.513l17.415.089a2.478 2.478 0 0 0 2.513-2.488l.246-48.181a2.5 2.5 0 0 0 -2.487-2.513l-48.182-.247h-.019a2.5 2.5 0 0 0 -2.5 2.488l-.089 17.415a2.5 2.5 0 0 0 2.487 2.513l12.417.063-27.772 27.49a2.5 2.5 0 0 0 3.517 3.554z"/><path d="m187.433 140.307a34.541 34.541 0 1 0 34.541 34.541 34.58 34.58 0 0 0 -34.541-34.541zm0 64.081a29.541 29.541 0 1 1 29.541-29.54 29.574 29.574 0 0 1 -29.541 29.54z"/></g><path d="m182.173 191.3h-.038a2.5 2.5 0 0 1 -1.782-.786l-13.57-14.414a2.5 2.5 0 1 1 3.64-3.427l11.8 12.54 22.267-22.266a2.5 2.5 0 0 1 3.535 3.535l-24.085 24.088a2.5 2.5 0 0 1 -1.767.73z" fill="#a58bc9"/></svg>