<svg height="511pt" viewBox="-67 0 511 511.99963" width="511pt" xmlns="http://www.w3.org/2000/svg"><path d="m261.113281.09375-71.441406 9.242188c-9.175781 1.1875-12.996094 12.398437-6.449219 18.941406l15.988282 15.988281-49.964844 49.96875c-37.480469-23.71875-87.671875-19.242187-120.347656 13.433594-37.863282 37.863281-37.863282 99.257812 0 137.125 37.867187 37.867187 99.261718 37.867187 137.128906 0 32.675781-32.675781 37.148437-82.867188 13.433594-120.347657l49.964843-49.964843 15.992188 15.992187c6.542969 6.542969 17.753906 2.726563 18.9375-6.453125l9.242187-71.4375c.9375-7.25-5.238281-13.425781-12.484375-12.488281zm-127.625 212.160156c-19.894531 19.894532-52.152343 19.894532-72.050781 0-19.894531-19.894531-19.894531-52.152344 0-72.050781 19.898438-19.894531 52.15625-19.894531 72.050781 0 19.894531 19.898437 19.894531 52.15625 0 72.050781zm0 0" fill="#2edbd9"/><path d="m212.324219 262.195312c-32.675781 32.675782-37.148438 82.867188-13.433594 120.347657l-21.625 21.628906-17.289063-17.289063c-3.714843-3.714843-9.738281-3.714843-13.457031 0l-16.488281 16.488282c-3.714844 3.714844-3.714844 9.738281 0 13.453125l17.289062 17.289062-44.898437 44.898438c-3.695313 3.699219-3.695313 9.691406 0 13.390625l16.828125 16.824218c3.695312 3.699219 9.6875 3.699219 13.386719 0l44.898437-44.898437 17.289063 17.289063c3.714843 3.714843 9.738281 3.714843 13.457031 0l16.488281-16.488282c3.714844-3.714844 3.714844-9.738281 0-13.453125l-17.292969-17.289062 21.628907-21.628907c37.480469 23.714844 87.671875 19.242188 120.347656-13.433593 37.867187-37.867188 37.867187-99.261719 0-137.128907-37.867187-37.867187-99.261719-37.867187-137.128906 0zm104.589843 104.589844c-19.894531 19.894532-52.152343 19.894532-72.050781 0-19.894531-19.894531-19.894531-52.152344 0-72.050781 19.898438-19.894531 52.15625-19.894531 72.050781 0 19.894532 19.898437 19.894532 52.15625 0 72.050781zm0 0" fill="#ffaacb"/></svg>