<svg id="Capa_1" enable-background="new 0 0 512 512" height="512" viewBox="0 0 512 512" width="512" xmlns="http://www.w3.org/2000/svg"><g id="XMLID_2514_"><path id="XMLID_2838_" d="m224 394h64v108h-64z" fill="#fff"/><path id="XMLID_2837_" d="m408 10h-304c-22.091 0-40 17.909-40 40v304c0 22.091 17.909 40 40 40h304c22.091 0 40-17.909 40-40v-304c0-22.091-17.909-40-40-40z" fill="#9593e6"/><g id="XMLID_479_"><path id="XMLID_480_" d="m326.12 87.958c-5.522 0-10 4.477-10 10v79.933c0 4.872 3.511 9.034 8.312 9.856.712.122 20.667.194 29.758.144 5.522-.031 9.975-4.533 9.944-10.056-.031-5.504-4.502-9.944-9.999-9.944-.019 0-.038 0-.057 0-6.165.035-12.771.06-17.958.066v-69.999c0-5.522-4.477-10-10-10z"/><path id="XMLID_493_" d="m212.867 137.958c0-5.523-4.478-10-10-10h-23.932c-5.522 0-10 4.477-10 10s4.478 10 10 10h12.775c-2.552 10.601-9.565 20-23.373 20-16.542 0-30-13.458-30-30s13.458-30 30-30c6.013 0 11.811 1.77 16.767 5.118 4.574 3.09 10.793 1.888 13.884-2.689 3.092-4.577 1.888-10.792-2.688-13.884-8.275-5.59-17.944-8.544-27.962-8.544-27.57 0-50 22.43-50 50s22.43 50 50 50c26.218-.001 44.529-20.561 44.529-50.001z"/><path id="XMLID_515_" d="m242.867 187.958c5.522 0 10-4.477 10-10v-22.646l25.746 29.253c1.977 2.246 4.736 3.393 7.511 3.393 2.347 0 4.703-.821 6.603-2.493 4.146-3.649 4.549-9.968.9-14.114l-20.332-23.101c13.185-3.798 22.825-15.583 22.825-29.501 0-16.978-14.341-30.791-31.968-30.791h-21.259c-.004 0-.009.001-.013.001s-.009-.001-.013-.001c-5.522 0-10 4.477-10 10v80c0 5.523 4.478 10 10 10zm21.285-80c6.487 0 11.968 4.942 11.968 10.791s-5.48 10.791-11.968 10.791c-2.61 0-7.035.018-11.167.038-.021-4.029-.05-17.396-.062-21.62z"/><path id="XMLID_519_" d="m393.662 246.833c0-16.979-14.341-30.792-31.968-30.792h-21.259c-.004 0-.009.001-.013.001s-.008-.001-.013-.001c-5.522 0-10 4.477-10 10v80c0 5.522 4.478 10 10 10s10-4.478 10-10v-22.646l25.745 29.252c1.977 2.246 4.736 3.394 7.511 3.394 2.347 0 4.703-.821 6.603-2.493 4.146-3.648 4.549-9.968.9-14.113l-20.332-23.101c13.186-3.798 22.826-15.583 22.826-29.501zm-31.968 10.791c-2.609 0-7.096.018-11.228.038-.021-4.029.012-17.397 0-21.621h11.228c6.487 0 11.968 4.942 11.968 10.792 0 5.849-5.48 10.791-11.968 10.791z"/><path id="XMLID_1353_" d="m128.338 216.042c-2.657 0-5.206 1.058-7.082 2.94-1.869 1.875-2.917 4.414-2.917 7.06h-.001v80c0 5.522 4.478 10 10 10s10-4.478 10-10v-24.804c4.493-.023 9.441-.044 12.275-.044 18.206 0 33.018-14.613 33.018-32.576s-14.812-32.576-33.018-32.576zm35.293 32.576c0 6.817-5.961 12.576-13.018 12.576-2.825 0-7.708.021-12.175.044-.023-4.626-.058-20.363-.071-25.196h12.246c7.057 0 13.018 5.759 13.018 12.576z"/><path id="XMLID_1355_" d="m211.69 216.231c-5.418 1.072-8.941 6.333-7.869 11.75l15.587 78.799c.094.479.224.948.387 1.408 1.672 4.706 6.136 7.853 11.124 7.853h.082c5.021-.035 9.48-3.253 11.097-8.008.029-.086.058-.173.084-.26l14.785-47.767 14.719 47.778c.042.136.086.271.134.404 1.672 4.705 6.136 7.853 11.124 7.853h.079c5.02-.034 9.479-3.25 11.098-8.003.142-.415.255-.84.341-1.27l15.648-78.629c1.078-5.417-2.439-10.681-7.855-11.759-5.417-1.082-10.682 2.438-11.76 7.856l-9.271 46.579-14.7-47.718c-1.627-5.278-7.223-8.241-12.501-6.612-3.584 1.104-6.095 4.041-6.831 7.465l-14.509 46.875-9.242-46.723c-1.071-5.419-6.333-8.941-11.751-7.871z"/><path id="XMLID_1359_" d="m408 0h-107c-5.522 0-10 4.477-10 10s4.478 10 10 10h107c16.542 0 30 13.458 30 30v304c0 16.542-13.458 30-30 30h-304c-16.542 0-30-13.458-30-30v-304c0-16.542 13.458-30 30-30h107c5.522 0 10-4.477 10-10s-4.478-10-10-10h-107c-27.57 0-50 22.43-50 50v304c0 27.57 22.43 50 50 50h110v98c0 5.522 4.478 10 10 10h64c5.522 0 10-4.478 10-10v-98h110c27.57 0 50-22.43 50-50v-304c0-27.57-22.43-50-50-50zm-130 492h-44v-88h44z"/><path id="XMLID_1361_" d="m256 20c2.63 0 5.21-1.07 7.069-2.93 1.861-1.86 2.931-4.44 2.931-7.07s-1.07-5.21-2.931-7.07c-1.859-1.86-4.439-2.93-7.069-2.93s-5.21 1.07-7.07 2.93c-1.861 1.86-2.93 4.44-2.93 7.07s1.069 5.21 2.93 7.07 4.44 2.93 7.07 2.93z"/></g></g></svg>