<svg height="512" viewBox="0 0 48 60" width="512" xmlns="http://www.w3.org/2000/svg"><path id="Shape" d="m13.342 48.456c-3.072 1.063-13.342 1.09-13.342 7.544v3c0 .5522847.44771525 1 1 1h46c.5522847 0 1-.4477153 1-1v-3c0-6.461-10.247-6.474-13.343-7.544-1.715279-.7014989-3.2921563-1.7024113-4.657-2.956-.4214648-.3556423-.669256-.8756393-.68-1.427-.0319231-1.5225291.2755137-3.0330685.9-4.422 3.6400858-2.3087093 5.8214369-6.3409153 5.762-10.651 1.0639813.004788 2.0860273-.4145248 2.8400703-1.1651898.7540431-.7506651 1.1779405-1.7708182 1.1779297-2.8348102v-3c.0033927-1.5235964-.861611-2.9159846-2.229-3.588 3.212-5.071 1.12-13.542-5.326-14.2-2.045-4.07-8.987-4.831-13.482-3.743-6.23 1.522-10.255 6.67-11.639 14.885-1.365 8.134 2.5 15.862-4.1 24.027-.24896174.3072854-.29343857.7324278-.11346545 1.0845868.17997312.3521589.55058203.5651691.94546545.5434132 5.483-.3 8.1-2.5 9.556-5.738 1.0186493 1.773486 2.4484298 3.276316 4.169 4.382.6244891 1.3896368.9319192 2.9008263.9 4.424-.012347.5525803-.2623546 1.0730042-.686 1.428-1.3639361 1.251543-2.9394297 2.2507439-4.653 2.951zm6.113-9.934c-.438-.875-5.455-2.493-5.455-10.102 0-.814.2.407-1.03-5.62-.110457-.541239-.638761-.8904569-1.18-.78-.541239.110457-.8904569.638761-.78 1.18l.99 4.875c-.0416449 1.4746537.1229461 2.9478945.489 4.377-1.045 3.61-2.6 5.566-6.366 6.3 5.3-8.392 1.938-15.739 3.169-23.066.866-5.137 3.328-11.609 10.14-13.274 4.338-1.053 9.48.034 11.059 2.369.383.7.527 1.389 1.294 1.389 5.524 0 7.166 8.461 3.5 12.123-.2405524.2439965-.3432798.5920526-.2737667.9275636.0695131.3355111.3020724.6141006.6197667.7424364.1810701.0672595.3768338.0848678.567.051 1.0246354.0948549 1.8068996.956995 1.802 1.986v3c0 1.1045695-.8954305 2-2 2-.961 0-1.376-.089-1.754.321-.2424766.3114019-.3360637.7135341-.256 1.1 0 7.617-4.977 9.168-5.445 10.1-.85008 1.7344315-1.2702442 3.6479791-1.225 5.579.0182657 1.1230116.5188248 2.1838763 1.374 2.912 1.5545521 1.420361 3.3518082 2.5496583 5.306 3.334 3.15 1.093 12 1.186 12 5.654v2h-44v-2c0-3.1 4.134-4.1 8.739-4.932 2.818-.5 4.793-.773 8.561-4.048.8577187-.7276293 1.360543-1.7893902 1.38-2.914.0458534-1.9326834-.3743215-3.8479949-1.225-5.584z"/></svg>